<mxfile host="app.diagrams.net" modified="2023-05-20T18:47:10.699Z" agent="Mozilla/5.0 (Windows NT 10.0; Win64; x64) AppleWebKit/537.36 (KHTML, like Gecko) Chrome/113.0.0.0 Safari/537.36" version="21.3.2" etag="3jOLkTWO1oQ1y-ndH_sr" type="github">
  <diagram name="Page-1" id="BE2x9OID8PUCBApDn84F">
    <mxGraphModel>
      <root>
        <mxCell id="0" />
        <mxCell id="1" parent="0" />
      </root>
    </mxGraphModel>
  </diagram>
</mxfile>
